<svg width="75" height="75" viewBox="0 0 75 75" fill="none" xmlns="http://www.w3.org/2000/svg">
<path d="M37.4819 75C58.0353 75 75 58.0271 75 37.5C75 16.9729 57.999 0 37.4456 0C16.9285 0 0 16.9729 0 37.5C0 58.0271 16.9647 75 37.4819 75ZM19.9372 37.5363C19.9372 35.3965 21.4596 33.9096 23.5621 33.9096H33.8932V23.5735C33.8932 21.47 35.3432 19.9831 37.4094 19.9831C39.5481 19.9831 41.0343 21.47 41.0343 23.5735V33.9096H51.4016C53.4679 33.9096 54.9903 35.3965 54.9903 37.5363C54.9903 39.6035 53.4679 41.0904 51.4016 41.0904H41.0343V51.4265C41.0343 53.4937 39.5481 55.0169 37.4094 55.0169C35.3432 55.0169 33.8932 53.4937 33.8932 51.4265V41.0904H23.5621C21.4596 41.0904 19.9372 39.6035 19.9372 37.5363Z" fill="black"/>
</svg>
