<svg width="75" height="75" viewBox="0 0 75 75" fill="none" xmlns="http://www.w3.org/2000/svg">
<path d="M1.37289 73.5967C2.32785 74.5119 3.48183 74.9695 4.83482 74.9695C6.18781 74.9695 7.3219 74.5119 8.23709 73.5967L37.4848 44.2893L66.7921 73.5967C67.7073 74.5119 68.8414 74.9795 70.1944 74.9994C71.5474 75.0193 72.6815 74.5517 73.5966 73.5967C74.5119 72.6417 74.9696 71.4976 74.9696 70.1646C74.9696 68.8315 74.5119 67.7074 73.5966 66.7921L44.2893 37.4847L73.5966 8.23701C74.5119 7.28204 74.9795 6.12807 74.9994 4.77508C75.0193 3.42217 74.5517 2.28807 73.5966 1.37279C72.6416 0.457599 71.4976 0 70.1645 0C68.8314 0 67.7073 0.457599 66.7921 1.37279L37.4848 30.6802L8.23709 1.37279C7.3219 0.457599 6.17786 0 4.80499 0C3.43212 0 2.28808 0.457599 1.37289 1.37279C0.457629 2.32784 0 3.47188 0 4.8049C0 6.13801 0.457629 7.28204 1.37289 8.23701L30.6802 37.4847L1.37289 66.7921C0.457629 67.7074 0 68.8415 0 70.1944C0 71.5474 0.457629 72.6815 1.37289 73.5967Z" fill="black"/>
</svg>
